<svg xmlns="http://www.w3.org/2000/svg" viewBox="0 0 64 64" width="64" height="64">
  <defs>
    <linearGradient id="grad1" x1="0%" y1="0%" x2="100%" y2="100%">
      <stop offset="0%" style="stop-color:#667eea;stop-opacity:1" />
      <stop offset="50%" style="stop-color:#764ba2;stop-opacity:1" />
      <stop offset="100%" style="stop-color:#f093fb;stop-opacity:1" />
    </linearGradient>
    <filter id="shadow" x="-50%" y="-50%" width="200%" height="200%">
      <feDropShadow dx="2" dy="2" stdDeviation="3" flood-color="#000000" flood-opacity="0.3"/>
    </filter>
  </defs>
  
  <!-- Background Circle -->
  <circle cx="32" cy="32" r="30" fill="url(#grad1)" filter="url(#shadow)"/>
  
  <!-- Weather Icon - Sun with Cloud -->
  <circle cx="28" cy="26" r="8" fill="#FFD700" opacity="0.9"/>
  <path d="M20 26 L16 26 M28 18 L28 14 M36 26 L40 26 M32 20 L34.5 17.5 M24 20 L21.5 17.5 M32 32 L34.5 34.5 M24 32 L21.5 34.5" 
        stroke="#FFD700" stroke-width="2" stroke-linecap="round" opacity="0.8"/>
  
  <!-- Cloud -->
  <path d="M18 38 C14 38 12 35 14 32 C14 28 18 26 22 28 C26 26 30 28 30 32 C32 32 34 34 32 38 Z" 
        fill="#FFFFFF" opacity="0.9" filter="url(#shadow)"/>
  
  <!-- PT Text -->
  <text x="32" y="50" font-family="Arial, sans-serif" font-size="14" font-weight="bold" 
        text-anchor="middle" fill="#FFFFFF" filter="url(#shadow)">PT</text>
</svg>
